<svg width="160" height="80" viewBox="0 0 160 80" fill="none" xmlns="http://www.w3.org/2000/svg">
<g clip-path="url(#clip0_1_662)">
<path d="M133.12 14.9235C131.469 11.6914 128.658 9.30132 125.205 8.18724C121.753 7.07316 118.074 7.36463 114.842 9.0228L108.339 12.3456C100.89 7.53304 91.1221 4.61182 80.4282 4.61182C69.7344 4.61182 59.2218 7.76622 51.6694 12.9156L46.0148 10.0203C42.7827 8.3686 39.1036 8.07065 35.6513 9.18473C32.1989 10.2988 29.3878 12.6954 27.7361 15.921C26.0844 19.1531 25.7865 22.8322 26.9006 26.2846C28.0147 29.7369 30.4112 32.548 33.6369 34.1997L36.7978 35.819C33.3713 39.5304 31.4281 43.7406 31.4281 48.1969C31.4281 63.2111 53.36 75.3818 80.4088 75.3818C107.458 75.3818 129.389 63.2111 129.389 48.1969C129.389 43.4621 127.207 39.0187 123.379 35.1389L127.187 33.1893C130.419 31.5376 132.809 28.7265 133.923 25.2741C135.038 21.8218 134.746 18.1427 133.088 14.9106L133.12 14.9235Z" fill="#FCF9F5"/>
<path d="M86.7435 62.7577C90.3837 62.3885 93.2337 59.3118 93.2337 55.5744C93.2337 54.7389 92.5536 54.0588 91.718 54.0588C90.8824 54.0588 90.2023 54.7389 90.2023 55.5744C90.2023 57.8868 88.3239 59.7652 86.0116 59.7652C83.6992 59.7652 81.8208 57.8868 81.8208 55.5744V53.5017C81.8208 53.4046 81.8079 53.3074 81.7949 53.2167C82.3455 53.003 82.8572 52.6662 83.2847 52.1998L85.1436 50.1789C85.61 49.6672 85.9403 49.0454 86.1023 48.3718C86.6917 45.8521 84.7809 43.4491 82.1965 43.4491H78.4268C75.8877 43.4491 73.9834 45.7809 74.4951 48.2746V48.2876C74.6506 49.0195 75.0003 49.6996 75.5185 50.2372L77.4228 52.2451C77.8309 52.6726 78.3102 52.99 78.8219 53.2038C78.8024 53.3009 78.7895 53.4046 78.7895 53.5082V55.5809C78.7895 57.8933 76.9111 59.7717 74.5987 59.7717C72.2864 59.7717 70.408 57.8933 70.408 55.5809C70.408 54.7453 69.7279 54.0652 68.8923 54.0652C68.0568 54.0652 67.3766 54.7453 67.3766 55.5809C67.3766 59.3571 70.2914 62.4597 73.9899 62.7706C74.2749 66.0416 77.0212 68.613 80.3634 68.613C83.7057 68.613 86.4585 66.0351 86.737 62.7641L86.7435 62.7577ZM80.3699 65.5752C78.5693 65.5752 77.0989 64.1503 77.0083 62.3755C78.3296 61.9091 79.4696 61.0736 80.3116 59.9854C81.1796 61.106 82.3649 61.961 83.7316 62.4208C83.6215 64.1826 82.1576 65.5817 80.3699 65.5817V65.5752Z" fill="#300F02"/>
<path d="M57.0908 36.7646C59.577 36.7646 61.5925 33.5515 61.5925 29.5879C61.5925 25.6243 59.577 22.4111 57.0908 22.4111C54.6046 22.4111 52.5892 25.6243 52.5892 29.5879C52.5892 33.5515 54.6046 36.7646 57.0908 36.7646Z" fill="#300F02"/>
<path d="M101.24 36.7646C103.726 36.7646 105.741 33.5515 105.741 29.5879C105.741 25.6243 103.726 22.4111 101.24 22.4111C98.7533 22.4111 96.7379 25.6243 96.7379 29.5879C96.7379 33.5515 98.7533 36.7646 101.24 36.7646Z" fill="#300F02"/>
<path d="M159.612 48.3005C151.652 45.9493 143.309 45.483 135.07 46.027C134.655 46.0465 134.241 46.0724 133.826 46.0983C133.328 41.4541 131.197 36.9849 127.576 32.9755C133.962 29.4389 136.45 21.4266 133.101 14.8846C131.443 11.6525 128.632 9.24945 125.173 8.13537C123.793 7.68845 122.381 7.46822 120.976 7.46822C118.851 7.46822 116.739 7.97344 114.796 8.97093L112.873 9.95547C104.433 3.77621 92.9681 0 80.3246 0C67.6811 0 55.478 4.01587 46.967 10.5384L45.8529 9.96842C43.9032 8.97093 41.7982 8.46571 39.6736 8.46571C38.2681 8.46571 36.856 8.68594 35.4764 9.13286C32.0176 10.2534 29.2 12.65 27.5483 15.8821C25.8901 19.1142 25.5987 22.7998 26.7127 26.2586C27.7167 29.3612 29.7441 31.9391 32.4839 33.6297C29.2194 37.4642 27.2892 41.7003 26.8229 46.0853C26.4083 46.0594 25.9938 46.0335 25.5792 46.0141C17.3402 45.47 9.00405 45.9364 1.03709 48.2876C0.91402 48.32 0.939929 48.5143 1.063 48.5143C3.14218 48.5985 5.18898 48.5143 7.23577 48.4754C13.3438 48.4236 19.4388 47.9767 25.5404 47.8407C25.929 47.8407 26.3241 47.8407 26.7127 47.8471C26.7127 47.9637 26.7063 48.0868 26.7063 48.2034C26.7063 50.1595 26.9913 52.0703 27.5353 53.9163C18.9271 54.8684 10.4226 57.0253 2.98025 60.2251C11.4071 58.541 19.8469 57.1614 28.3385 56.1639C29.2907 58.4244 30.6379 60.5813 32.3414 62.6087C29.3619 63.4637 26.3759 64.4094 23.5454 65.6724C20.7148 67.0391 17.7289 68.7102 15.2546 70.6469C14.5291 71.2234 13.8037 71.7934 13.1171 72.4022C13.0134 72.4864 13.13 72.6484 13.2401 72.5965C20.0088 69.8243 26.4277 66.8318 33.2353 64.2474C33.3843 64.1956 33.5332 64.1438 33.6757 64.092C42.8151 73.6588 60.0963 79.9806 80.3311 79.9806C100.566 79.9806 117.841 73.6588 126.986 64.092C127.135 64.1438 127.284 64.1891 127.427 64.2474C134.234 66.8318 140.653 69.8243 147.422 72.5965C147.539 72.6548 147.642 72.4864 147.545 72.4022C146.858 71.7869 146.133 71.2169 145.408 70.6469C142.927 68.7102 139.947 67.0391 137.117 65.6724C134.28 64.4094 131.294 63.4637 128.321 62.6087C130.024 60.5813 131.371 58.4244 132.324 56.1639C140.815 57.1614 149.262 58.541 157.682 60.2251C150.233 57.0318 141.729 54.8684 133.127 53.9163C133.671 52.0638 133.956 50.1595 133.956 48.2034C133.956 48.0868 133.949 47.9637 133.949 47.8471C134.345 47.8471 134.733 47.8407 135.128 47.8407C141.236 47.9767 147.325 48.4236 153.433 48.4754C155.48 48.5143 157.526 48.5985 159.606 48.5143C159.735 48.5143 159.748 48.32 159.632 48.2876L159.612 48.3005ZM110.742 49.8227C116.39 48.7669 122.128 48.2228 127.867 47.9896C127.867 48.0674 127.874 48.1386 127.874 48.2163C127.874 50.0105 127.53 51.7658 126.883 53.4564C121.105 53.2167 115.379 53.5406 110.01 54.4928C115.34 54.6612 120.645 55.0045 125.931 55.5032C124.894 57.401 123.456 59.2146 121.682 60.8987C116.655 59.7522 111.545 58.962 106.408 58.6835C106.35 58.6835 106.298 58.7224 106.292 58.7807C106.279 58.8454 106.331 58.9037 106.389 58.9102C111.13 59.6357 115.826 60.685 120.438 62.0128C115.703 66.0222 108.973 69.2802 101.006 71.3724V53.0483C101.006 41.5578 91.6597 32.2112 80.1691 32.2112C68.6786 32.2112 59.332 41.5578 59.332 53.0483V71.2817C51.501 69.1895 44.8878 65.9704 40.2177 62.0128C44.8295 60.685 49.5255 59.6292 54.2668 58.9102C54.3251 58.9037 54.3704 58.8519 54.3704 58.7936C54.3704 58.7288 54.3121 58.6835 54.2538 58.6835C52.4273 58.7677 50.6072 58.9426 48.7935 59.1693C45.5031 59.5709 42.2192 60.1538 38.9741 60.8922C37.1993 59.2017 35.7679 57.3945 34.725 55.4967C40.0104 54.998 45.3153 54.6547 50.646 54.4863C45.2699 53.5341 39.5506 53.2103 33.7729 53.4499C33.1252 51.7594 32.7819 50.004 32.7819 48.2099C32.7819 48.1321 32.7819 48.0609 32.7884 47.9832C38.5336 48.2099 44.266 48.7604 49.9141 49.8162C49.9724 49.8292 50.0307 49.7968 50.0501 49.7385C50.0696 49.6802 50.0307 49.6154 49.9724 49.596C44.3826 48.0479 38.6502 47.1217 32.879 46.5646C33.3454 42.7107 35.444 38.941 39.0194 35.5599L39.4599 35.1453L39.4923 34.543C39.9068 26.9517 44.2854 19.8397 51.8119 14.5025C59.4939 9.06161 69.6242 6.06267 80.3311 6.06267C91.0379 6.06267 101.168 9.06161 108.85 14.5025C116.377 19.8332 120.755 26.9517 121.17 34.543L121.202 35.1453L121.643 35.5599C125.218 38.941 127.317 42.7172 127.783 46.5646C122.012 47.1282 116.28 48.0479 110.69 49.596C110.631 49.6154 110.599 49.6672 110.612 49.7255C110.625 49.7903 110.69 49.8292 110.748 49.8162L110.742 49.8227ZM62.3633 71.2363V53.0483C62.3633 43.2354 70.3497 35.249 80.1627 35.249C89.9756 35.249 97.9685 43.2354 97.9685 53.0483V71.2299C81.497 75.8481 66.3792 72.3439 62.3633 71.2299V71.2363ZM37.2641 29.3223L36.2278 28.7912C34.4336 27.8714 33.1057 26.3169 32.4904 24.3996C31.8751 22.4824 32.037 20.4421 32.9503 18.6479C33.8636 16.8537 35.4311 15.5259 37.3418 14.9105C39.2591 14.2887 41.2994 14.4571 43.0936 15.3704L44.9396 16.3161C41.2023 20.0988 38.5336 24.5162 37.2641 29.3223ZM127.705 17.6439C129.597 21.3424 128.126 25.8959 124.428 27.7872L123.139 28.4479C121.701 23.6936 118.89 19.3539 115.036 15.6554L117.562 14.3664C121.261 12.4751 125.814 13.9454 127.705 17.6439Z" fill="#300F02"/>
</g>
<defs>
<clipPath id="clip0_1_662">
<rect width="158.73" height="80" fill="white" transform="translate(0.959351)"/>
</clipPath>
</defs>
</svg>
