<?xml version="1.0" encoding="UTF-8"?>
<svg id="Livello_2" data-name="Livello 2" xmlns="http://www.w3.org/2000/svg" viewBox="0 0 244.79 123.37">
  <defs>
    <style>
      .cls-1 {
        fill: #fcf9f5;
      }
    </style>
  </defs>
  <g id="Livello_1-2" data-name="Livello 1">
    <g>
      <ellipse class="cls-1" cx="86.57" cy="45.63" rx="6.15" ry="9.8"/>
      <ellipse class="cls-1" cx="154.64" cy="45.63" rx="6.15" ry="9.8"/>
      <path class="cls-1" d="m244.67,74.48c-12.28-3.62-25.14-4.34-37.85-3.5-.64.03-1.28.07-1.92.11-.76-7.17-4.05-14.06-9.63-20.24,9.85-5.45,13.68-17.81,8.52-27.9-2.56-4.99-6.9-8.69-12.23-10.41-2.13-.69-4.31-1.03-6.47-1.03-3.28,0-6.54.78-9.54,2.31l-2.96,1.52C159.57,5.82,141.89,0,122.4,0s-38.32,6.19-51.44,16.25l-1.72-.88c-3-1.53-6.26-2.31-9.53-2.31-2.17,0-4.35.34-6.48,1.03-5.33,1.72-9.67,5.42-12.22,10.41-2.55,4.99-3.01,10.67-1.29,16,1.55,4.78,4.68,8.76,8.9,11.37-5.03,5.92-8,12.45-8.73,19.22-.64-.04-1.28-.08-1.92-.11-12.71-.84-25.56-.12-37.84,3.5-.2.05-.15.35.04.35,3.2.13,6.36,0,9.51-.06,9.42-.07,18.82-.77,28.23-.98.61,0,1.21.01,1.82.01-.01.19-.02.37-.02.55,0,3.02.44,5.97,1.28,8.82-13.27,1.47-26.38,4.8-37.87,9.73,12.99-2.61,26.01-4.73,39.11-6.27,1.46,3.49,3.54,6.81,6.17,9.94-4.59,1.32-9.2,2.78-13.57,4.73-4.37,2.11-8.97,4.68-12.79,7.67-1.12.89-2.24,1.76-3.3,2.71-.15.13.02.38.19.3,10.44-4.28,20.34-8.89,30.84-12.88.23-.08.46-.15.68-.23,14.1,14.75,40.75,24.5,71.95,24.5s57.84-9.75,71.94-24.5c.23.08.46.15.68.23,10.5,3.99,20.4,8.6,30.84,12.88.18.08.34-.18.19-.3-1.06-.95-2.18-1.82-3.3-2.71-3.82-2.99-8.42-5.56-12.79-7.67-4.37-1.95-8.97-3.41-13.56-4.73,2.62-3.13,4.7-6.45,6.16-9.94,13.1,1.54,26.12,3.66,39.11,6.27-11.49-4.93-24.6-8.27-37.87-9.73.84-2.85,1.28-5.8,1.28-8.82,0-.18,0-.36,0-.55.6,0,1.21-.01,1.81-.01,9.42.21,18.81.91,28.23.98,3.15.06,6.31.19,9.51.06.2,0,.23-.3.05-.35Zm-64.86-52.33c5.71-2.92,12.73-.65,15.65,5.05,2.92,5.71.65,12.73-5.06,15.65l-1.99,1.02c-2.21-7.33-6.55-14.02-12.49-19.73l3.89-1.99Zm-130.48,6.61c1.42-2.77,3.83-4.82,6.78-5.77,2.96-.96,6.11-.7,8.87.71l2.85,1.46c-5.77,5.83-9.88,12.64-11.84,20.06l-1.6-.82c-2.76-1.41-4.81-3.82-5.77-6.77-.95-2.96-.7-6.11.71-8.87Zm100.28,81.09c-25.4,7.12-48.72,1.71-54.91,0v-28.04c0-15.14,12.31-27.45,27.45-27.45s27.46,12.31,27.46,27.45v28.04Zm44.58-27.41c-8.91-.37-17.73.13-26.02,1.59,8.23.26,16.41.79,24.55,1.56-1.6,2.93-3.81,5.72-6.55,8.33-7.75-1.77-15.63-2.99-23.56-3.42-.09,0-.17.06-.18.15-.02.1.06.19.15.2,7.32,1.11,14.56,2.73,21.67,4.78-7.3,6.19-17.68,11.21-29.97,14.43v-28.25c0-17.72-14.41-32.13-32.13-32.13s-32.13,14.41-32.13,32.13v28.12c-12.07-3.22-22.27-8.19-29.48-14.3,7.11-2.05,14.35-3.67,21.67-4.78.09,0,.16-.09.15-.18,0-.1-.08-.18-.18-.17-2.82.13-5.62.4-8.42.75-5.07.62-10.14,1.52-15.14,2.66-2.74-2.61-4.95-5.39-6.55-8.32,8.15-.77,16.33-1.3,24.55-1.56-8.29-1.46-17.11-1.96-26.02-1.59-1.01-2.61-1.53-5.32-1.53-8.09,0-.11,0-.23,0-.34,8.85.35,17.69,1.19,26.41,2.82.09.02.18-.03.21-.12.02-.1-.03-.19-.12-.22-8.62-2.39-17.46-3.81-26.36-4.68.72-5.94,3.96-11.76,9.47-16.98l.67-.64.06-.93c.64-11.7,7.39-22.67,19-30.9,11.84-8.39,27.46-13.01,43.98-13.01s32.13,4.62,43.97,13.01c11.61,8.23,18.36,19.2,19.01,30.9l.05.93.67.64c5.51,5.22,8.75,11.04,9.47,16.98-8.9.87-17.74,2.29-26.35,4.68-.09.02-.15.11-.13.2.02.1.12.16.22.14,8.71-1.63,17.55-2.47,26.41-2.82,0,.11.01.23.01.34,0,2.77-.53,5.48-1.54,8.09Z"/>
      <path class="cls-1" d="m138.61,83.57c-1.1.08-1.99.98-2.03,2.09-.08,2.36-1.23,4.61-3.39,5.54-4.39,1.9-8.64-1.29-8.64-5.45v-2.98c0-.14-.02-.28-.04-.41.79-.31,1.52-.79,2.14-1.46l2.55-2.78c.58-.62,1.05-1.34,1.33-2.14,1.29-3.82-1.54-7.65-5.45-7.65h-5.41c-3.63,0-6.35,3.3-5.66,6.86v.02c.21,1.07.72,2.07,1.48,2.87l2.73,2.88c.59.62,1.28,1.08,2.02,1.38-.03.14-.05.28-.05.43v2.72c0,3.19-2.36,6.01-5.54,6.25-3.48.27-6.4-2.44-6.49-5.85-.02-1.12-.78-2.17-1.9-2.31-1.33-.16-2.45.87-2.45,2.17,0,5.21,3.86,9.53,8.88,10.25.6,5.14,4.77,9.14,9.81,9.14s9.23-4.02,9.82-9.18c4.83-.83,8.52-5,8.62-10.03.02-1.29-1.04-2.44-2.33-2.36Zm-16.11,18.07c-3.08,0-5.67-2.39-6.26-5.55.7-.05,1.37-.23,2-.55,1.62-.81,3.03-1.97,4.12-3.39,1.14,1.46,2.6,2.66,4.28,3.47.66.33,1.38.49,2.11.53-.61,3.13-3.18,5.49-6.25,5.49Z"/>
    </g>
  </g>
</svg>